<mxfile host="app.diagrams.net" agent="Mozilla/5.0 (Windows NT 10.0; Win64; x64) AppleWebKit/537.36 (KHTML, like Gecko) Chrome/129.0.0.0 Safari/537.36" version="24.8.0" pages="2">
  <diagram id="XkNLRLM48PrKir2mhC3h" name="Contact Us">
    <mxGraphModel dx="1434" dy="784" grid="1" gridSize="10" guides="1" tooltips="1" connect="1" arrows="1" fold="1" page="1" pageScale="1" pageWidth="850" pageHeight="1100" math="0" shadow="0">
      <root>
        <mxCell id="0" />
        <mxCell id="1" parent="0" />
        <mxCell id="8GSgDtoo-Hn0maugU2ej-2" value="" style="rounded=0;whiteSpace=wrap;html=1;fillColor=#91dd8d;strokeColor=#82b366;" vertex="1" parent="1">
          <mxGeometry x="10" y="10" width="830" height="100" as="geometry" />
        </mxCell>
        <mxCell id="8GSgDtoo-Hn0maugU2ej-3" value="" style="verticalLabelPosition=bottom;shadow=0;dashed=0;align=center;html=1;verticalAlign=top;strokeWidth=1;shape=mxgraph.mockup.graphics.simpleIcon;strokeColor=#999999;" vertex="1" parent="1">
          <mxGeometry x="26" y="23.5" width="72.5" height="72.5" as="geometry" />
        </mxCell>
        <mxCell id="8GSgDtoo-Hn0maugU2ej-13" value="" style="swimlane;shape=mxgraph.bootstrap.anchor;strokeColor=#999999;fillColor=#ffffff;fontColor=#666666;childLayout=stackLayout;horizontal=0;startSize=0;horizontalStack=1;resizeParent=1;resizeParentMax=0;resizeLast=0;collapsible=0;marginBottom=0;whiteSpace=wrap;html=1;" vertex="1" parent="1">
          <mxGeometry x="210" y="40" width="460" height="45" as="geometry" />
        </mxCell>
        <mxCell id="8GSgDtoo-Hn0maugU2ej-14" value="Home" style="text;strokeColor=inherit;align=center;verticalAlign=middle;spacingLeft=10;spacingRight=10;overflow=hidden;points=[[0,0.5],[1,0.5]];portConstraint=eastwest;rotatable=0;whiteSpace=wrap;html=1;fillColor=inherit;fontColor=inherit;fontSize=17;" vertex="1" parent="8GSgDtoo-Hn0maugU2ej-13">
          <mxGeometry width="90" height="45" as="geometry" />
        </mxCell>
        <mxCell id="8GSgDtoo-Hn0maugU2ej-15" value="" style="text;strokeColor=inherit;align=center;verticalAlign=middle;spacingLeft=10;spacingRight=10;overflow=hidden;points=[[0,0.5],[1,0.5]];portConstraint=eastwest;rotatable=0;whiteSpace=wrap;html=1;fillColor=inherit;fontColor=inherit;fontSize=17;" vertex="1" parent="8GSgDtoo-Hn0maugU2ej-13">
          <mxGeometry x="90" width="30" height="45" as="geometry" />
        </mxCell>
        <mxCell id="8GSgDtoo-Hn0maugU2ej-16" value="About Us" style="text;strokeColor=inherit;align=center;verticalAlign=middle;spacingLeft=10;spacingRight=10;overflow=hidden;points=[[0,0.5],[1,0.5]];portConstraint=eastwest;rotatable=0;whiteSpace=wrap;html=1;fillColor=inherit;fontColor=inherit;fontSize=17;" vertex="1" parent="8GSgDtoo-Hn0maugU2ej-13">
          <mxGeometry x="120" width="110" height="45" as="geometry" />
        </mxCell>
        <mxCell id="8GSgDtoo-Hn0maugU2ej-17" value="" style="text;strokeColor=inherit;align=center;verticalAlign=middle;spacingLeft=10;spacingRight=10;overflow=hidden;points=[[0,0.5],[1,0.5]];portConstraint=eastwest;rotatable=0;whiteSpace=wrap;html=1;fillColor=inherit;fontColor=inherit;fontSize=17;" vertex="1" parent="8GSgDtoo-Hn0maugU2ej-13">
          <mxGeometry x="230" width="30" height="45" as="geometry" />
        </mxCell>
        <mxCell id="8GSgDtoo-Hn0maugU2ej-18" value="Trips" style="text;strokeColor=inherit;align=center;verticalAlign=middle;spacingLeft=10;spacingRight=10;overflow=hidden;points=[[0,0.5],[1,0.5]];portConstraint=eastwest;rotatable=0;whiteSpace=wrap;html=1;fillColor=inherit;fontColor=inherit;fontSize=17;" vertex="1" parent="8GSgDtoo-Hn0maugU2ej-13">
          <mxGeometry x="260" width="90" height="45" as="geometry" />
        </mxCell>
        <mxCell id="8GSgDtoo-Hn0maugU2ej-19" value="Contact Us" style="text;strokeColor=inherit;align=center;verticalAlign=middle;spacingLeft=10;spacingRight=10;overflow=hidden;points=[[0,0.5],[1,0.5]];portConstraint=eastwest;rotatable=0;whiteSpace=wrap;html=1;fillColor=inherit;fontColor=inherit;fontSize=17;" vertex="1" parent="8GSgDtoo-Hn0maugU2ej-13">
          <mxGeometry x="350" width="110" height="45" as="geometry" />
        </mxCell>
        <mxCell id="8GSgDtoo-Hn0maugU2ej-20" value="" style="rounded=0;whiteSpace=wrap;html=1;fillColor=#91dd8d;strokeColor=#82b366;" vertex="1" parent="1">
          <mxGeometry x="10" y="720" width="830" height="70" as="geometry" />
        </mxCell>
        <mxCell id="8GSgDtoo-Hn0maugU2ej-21" value="" style="verticalLabelPosition=bottom;shadow=0;dashed=0;align=center;html=1;verticalAlign=top;strokeWidth=1;shape=mxgraph.mockup.graphics.simpleIcon;strokeColor=#999999;" vertex="1" parent="1">
          <mxGeometry x="630" y="730" width="50" height="50" as="geometry" />
        </mxCell>
        <mxCell id="8GSgDtoo-Hn0maugU2ej-23" value="" style="verticalLabelPosition=bottom;shadow=0;dashed=0;align=center;html=1;verticalAlign=top;strokeWidth=1;shape=mxgraph.mockup.graphics.simpleIcon;strokeColor=#999999;" vertex="1" parent="1">
          <mxGeometry x="770" y="730" width="50" height="50" as="geometry" />
        </mxCell>
        <mxCell id="8GSgDtoo-Hn0maugU2ej-24" value="Footer Content including social media Icons/Links" style="text;html=1;align=center;verticalAlign=middle;whiteSpace=wrap;rounded=0;fontColor=#000000;fontStyle=0;fontSize=16;" vertex="1" parent="1">
          <mxGeometry x="98.5" y="740" width="461.5" height="30" as="geometry" />
        </mxCell>
        <mxCell id="8GSgDtoo-Hn0maugU2ej-25" value="" style="strokeWidth=1;shadow=0;dashed=0;align=center;html=1;shape=mxgraph.mockup.forms.rrect;rSize=0;strokeColor=#999999;fillColor=#ffffff;" vertex="1" parent="1">
          <mxGeometry x="10" y="130" width="200" height="320" as="geometry" />
        </mxCell>
        <mxCell id="8GSgDtoo-Hn0maugU2ej-26" value="Conact Us" style="strokeWidth=1;shadow=0;dashed=0;align=center;html=1;shape=mxgraph.mockup.forms.anchor;fontSize=12;fontColor=#666666;align=left;resizeWidth=1;spacingLeft=0;" vertex="1" parent="8GSgDtoo-Hn0maugU2ej-25">
          <mxGeometry width="100" height="20" relative="1" as="geometry">
            <mxPoint x="10" y="10" as="offset" />
          </mxGeometry>
        </mxCell>
        <mxCell id="8GSgDtoo-Hn0maugU2ej-27" value="" style="shape=line;strokeColor=#ddeeff;strokeWidth=2;html=1;resizeWidth=1;" vertex="1" parent="8GSgDtoo-Hn0maugU2ej-25">
          <mxGeometry width="180" height="10" relative="1" as="geometry">
            <mxPoint x="10" y="30" as="offset" />
          </mxGeometry>
        </mxCell>
        <mxCell id="8GSgDtoo-Hn0maugU2ej-28" value="Name:" style="strokeWidth=1;shadow=0;dashed=0;align=center;html=1;shape=mxgraph.mockup.forms.anchor;fontSize=12;fontColor=#666666;align=left;resizeWidth=1;spacingLeft=0;" vertex="1" parent="8GSgDtoo-Hn0maugU2ej-25">
          <mxGeometry width="100" height="20" relative="1" as="geometry">
            <mxPoint x="10" y="40" as="offset" />
          </mxGeometry>
        </mxCell>
        <mxCell id="8GSgDtoo-Hn0maugU2ej-29" value="mikestrydom" style="strokeWidth=1;shadow=0;dashed=0;align=center;html=1;shape=mxgraph.mockup.forms.rrect;rSize=0;strokeColor=#999999;fontColor=#666666;align=left;spacingLeft=5;resizeWidth=1;" vertex="1" parent="8GSgDtoo-Hn0maugU2ej-25">
          <mxGeometry width="150" height="25" relative="1" as="geometry">
            <mxPoint x="10" y="60" as="offset" />
          </mxGeometry>
        </mxCell>
        <mxCell id="8GSgDtoo-Hn0maugU2ej-30" value="E-mail" style="strokeWidth=1;shadow=0;dashed=0;align=center;html=1;shape=mxgraph.mockup.forms.anchor;fontSize=12;fontColor=#666666;align=left;resizeWidth=1;spacingLeft=0;" vertex="1" parent="8GSgDtoo-Hn0maugU2ej-25">
          <mxGeometry width="100" height="20" relative="1" as="geometry">
            <mxPoint x="10" y="95" as="offset" />
          </mxGeometry>
        </mxCell>
        <mxCell id="8GSgDtoo-Hn0maugU2ej-31" value="mikeandgill@gmail.com" style="strokeWidth=1;shadow=0;dashed=0;align=center;html=1;shape=mxgraph.mockup.forms.rrect;rSize=0;strokeColor=#999999;fontColor=#666666;align=left;spacingLeft=5;resizeWidth=1;" vertex="1" parent="8GSgDtoo-Hn0maugU2ej-25">
          <mxGeometry width="150" height="25" relative="1" as="geometry">
            <mxPoint x="10" y="115" as="offset" />
          </mxGeometry>
        </mxCell>
        <mxCell id="8GSgDtoo-Hn0maugU2ej-36" value="Send Message" style="strokeWidth=1;shadow=0;dashed=0;align=center;html=1;shape=mxgraph.mockup.forms.rrect;rSize=5;strokeColor=none;fontColor=#ffffff;fillColor=#66bbff;fontSize=16;fontStyle=1;" vertex="1" parent="8GSgDtoo-Hn0maugU2ej-25">
          <mxGeometry y="1" width="130" height="30" relative="1" as="geometry">
            <mxPoint x="35" y="-45" as="offset" />
          </mxGeometry>
        </mxCell>
        <mxCell id="8GSgDtoo-Hn0maugU2ej-37" value="Reason for contacting us" style="text;html=1;align=center;verticalAlign=middle;whiteSpace=wrap;rounded=0;" vertex="1" parent="8GSgDtoo-Hn0maugU2ej-25">
          <mxGeometry x="7" y="142.53333333333333" width="140" height="32" as="geometry" />
        </mxCell>
        <mxCell id="8GSgDtoo-Hn0maugU2ej-38" value="" style="swimlane;strokeColor=#999999;swimlaneFillColor=#FFFFFF;fillColor=#ffffff;fontColor=#666666;fontStyle=0;childLayout=stackLayout;horizontal=1;startSize=0;horizontalStack=0;resizeParent=1;resizeParentMax=0;resizeLast=0;collapsible=0;marginBottom=0;whiteSpace=wrap;html=1;" vertex="1" parent="1">
          <mxGeometry x="10" y="300" width="200" height="90" as="geometry" />
        </mxCell>
        <mxCell id="8GSgDtoo-Hn0maugU2ej-39" value="General Inquiry" style="text;strokeColor=none;align=left;verticalAlign=middle;spacingLeft=27;spacingRight=10;overflow=hidden;points=[[0,0.5],[1,0.5]];portConstraint=eastwest;rotatable=0;whiteSpace=wrap;html=1;fillColor=none;fontColor=inherit;fontSize=17;" vertex="1" parent="8GSgDtoo-Hn0maugU2ej-38">
          <mxGeometry width="200" height="30" as="geometry" />
        </mxCell>
        <mxCell id="8GSgDtoo-Hn0maugU2ej-40" value="" style="resizable=0;fillColor=#EEEEEE;strokeColor=#999999;gradientColor=#cccccc;html=1;" vertex="1" parent="8GSgDtoo-Hn0maugU2ej-39">
          <mxGeometry y="0.5" width="15" height="15" relative="1" as="geometry">
            <mxPoint x="8" y="-7.5" as="offset" />
          </mxGeometry>
        </mxCell>
        <mxCell id="8GSgDtoo-Hn0maugU2ej-41" value="Reservation Request" style="text;strokeColor=none;align=left;verticalAlign=middle;spacingLeft=27;spacingRight=10;overflow=hidden;points=[[0,0.5],[1,0.5]];portConstraint=eastwest;rotatable=0;whiteSpace=wrap;html=1;rSize=5;fillColor=none;fontColor=inherit;fontSize=17;" vertex="1" parent="8GSgDtoo-Hn0maugU2ej-38">
          <mxGeometry y="30" width="200" height="30" as="geometry" />
        </mxCell>
        <mxCell id="8GSgDtoo-Hn0maugU2ej-42" value="" style="resizable=0;fillColor=#EEEEEE;strokeColor=#999999;gradientColor=#cccccc;html=1;" vertex="1" parent="8GSgDtoo-Hn0maugU2ej-41">
          <mxGeometry y="0.5" width="15" height="15" relative="1" as="geometry">
            <mxPoint x="8" y="-7.5" as="offset" />
          </mxGeometry>
        </mxCell>
        <mxCell id="8GSgDtoo-Hn0maugU2ej-43" value="Website Suggestion" style="text;strokeColor=none;align=left;verticalAlign=middle;spacingLeft=27;spacingRight=10;overflow=hidden;points=[[0,0.5],[1,0.5]];portConstraint=eastwest;rotatable=0;whiteSpace=wrap;html=1;rSize=5;fillColor=none;fontColor=#008CFF;fontSize=17;" vertex="1" parent="8GSgDtoo-Hn0maugU2ej-38">
          <mxGeometry y="60" width="200" height="30" as="geometry" />
        </mxCell>
        <mxCell id="8GSgDtoo-Hn0maugU2ej-44" value="" style="shape=mxgraph.mockup.forms.checkbox;resizable=0;fillColor=#AAAAAA;gradientColor=#666666;strokeColor=#444444;html=1;" vertex="1" parent="8GSgDtoo-Hn0maugU2ej-43">
          <mxGeometry y="0.5" width="15" height="15" relative="1" as="geometry">
            <mxPoint x="8" y="-7.5" as="offset" />
          </mxGeometry>
        </mxCell>
        <mxCell id="8GSgDtoo-Hn0maugU2ej-47" value="&lt;font face=&quot;Verdana&quot; style=&quot;font-size: 18px;&quot;&gt;Club Rafting Address&lt;/font&gt;&lt;div style=&quot;font-size: 15px;&quot;&gt;&lt;font style=&quot;font-size: 15px;&quot; face=&quot;Comic Sans MS&quot;&gt;138 South Beach Road&lt;/font&gt;&lt;/div&gt;&lt;div style=&quot;font-size: 15px;&quot;&gt;&lt;font style=&quot;font-size: 15px;&quot; face=&quot;Comic Sans MS&quot;&gt;La Mercy&lt;/font&gt;&lt;/div&gt;&lt;div style=&quot;font-size: 15px;&quot;&gt;&lt;font style=&quot;font-size: 15px;&quot; face=&quot;Comic Sans MS&quot;&gt;Durban&lt;/font&gt;&lt;/div&gt;&lt;div style=&quot;font-size: 15px;&quot;&gt;&lt;font style=&quot;font-size: 15px;&quot; face=&quot;Comic Sans MS&quot;&gt;+27 65 142 5301&lt;/font&gt;&lt;/div&gt;" style="text;html=1;align=left;verticalAlign=middle;whiteSpace=wrap;rounded=0;" vertex="1" parent="1">
          <mxGeometry x="320" y="160" width="195" height="30" as="geometry" />
        </mxCell>
        <mxCell id="8GSgDtoo-Hn0maugU2ej-50" value="" style="group" vertex="1" connectable="0" parent="1">
          <mxGeometry x="320" y="230" width="430" height="220" as="geometry" />
        </mxCell>
        <mxCell id="8GSgDtoo-Hn0maugU2ej-48" value="" style="verticalLabelPosition=bottom;shadow=0;dashed=0;align=center;html=1;verticalAlign=top;strokeWidth=1;shape=mxgraph.mockup.graphics.simpleIcon;strokeColor=#999999;" vertex="1" parent="8GSgDtoo-Hn0maugU2ej-50">
          <mxGeometry width="430" height="220" as="geometry" />
        </mxCell>
        <mxCell id="8GSgDtoo-Hn0maugU2ej-49" value="&lt;font face=&quot;Comic Sans MS&quot;&gt;&lt;span style=&quot;font-size: 18px;&quot;&gt;Google Map Showing Location&lt;/span&gt;&lt;/font&gt;" style="text;html=1;align=center;verticalAlign=middle;whiteSpace=wrap;rounded=0;" vertex="1" parent="8GSgDtoo-Hn0maugU2ej-50">
          <mxGeometry x="105" y="91.66666666666667" width="195" height="36.666666666666664" as="geometry" />
        </mxCell>
        <mxCell id="8GSgDtoo-Hn0maugU2ej-51" value="" style="verticalLabelPosition=bottom;shadow=0;dashed=0;align=center;html=1;verticalAlign=top;strokeWidth=1;shape=mxgraph.mockup.graphics.simpleIcon;strokeColor=#999999;flipV=1;" vertex="1" parent="1">
          <mxGeometry x="140" y="550" width="120" height="120" as="geometry" />
        </mxCell>
        <mxCell id="8GSgDtoo-Hn0maugU2ej-52" value="" style="verticalLabelPosition=bottom;shadow=0;dashed=0;align=center;html=1;verticalAlign=top;strokeWidth=1;shape=mxgraph.mockup.graphics.simpleIcon;strokeColor=#999999;flipV=1;" vertex="1" parent="1">
          <mxGeometry x="355" y="550" width="120" height="120" as="geometry" />
        </mxCell>
        <mxCell id="8GSgDtoo-Hn0maugU2ej-53" value="" style="verticalLabelPosition=bottom;shadow=0;dashed=0;align=center;html=1;verticalAlign=top;strokeWidth=1;shape=mxgraph.mockup.graphics.simpleIcon;strokeColor=#999999;flipV=1;" vertex="1" parent="1">
          <mxGeometry x="570" y="550" width="120" height="120" as="geometry" />
        </mxCell>
        <mxCell id="8GSgDtoo-Hn0maugU2ej-54" value="CEO" style="text;html=1;align=center;verticalAlign=middle;whiteSpace=wrap;rounded=0;" vertex="1" parent="1">
          <mxGeometry x="140" y="670" width="120" height="30" as="geometry" />
        </mxCell>
        <mxCell id="8GSgDtoo-Hn0maugU2ej-55" value="VP Operations" style="text;html=1;align=center;verticalAlign=middle;whiteSpace=wrap;rounded=0;" vertex="1" parent="1">
          <mxGeometry x="355" y="670" width="115" height="30" as="geometry" />
        </mxCell>
        <mxCell id="8GSgDtoo-Hn0maugU2ej-56" value="River Guide" style="text;html=1;align=center;verticalAlign=middle;whiteSpace=wrap;rounded=0;" vertex="1" parent="1">
          <mxGeometry x="570" y="670" width="120" height="30" as="geometry" />
        </mxCell>
        <mxCell id="8GSgDtoo-Hn0maugU2ej-57" value="" style="verticalLabelPosition=bottom;shadow=0;dashed=0;align=center;html=1;verticalAlign=top;strokeWidth=1;shape=mxgraph.mockup.graphics.simpleIcon;strokeColor=#999999;" vertex="1" parent="1">
          <mxGeometry x="700" y="730" width="50" height="50" as="geometry" />
        </mxCell>
      </root>
    </mxGraphModel>
  </diagram>
  <diagram id="T9IUQd44NFaYJdKqIchn" name="Trips">
    <mxGraphModel dx="1434" dy="784" grid="1" gridSize="10" guides="1" tooltips="1" connect="1" arrows="1" fold="1" page="1" pageScale="1" pageWidth="850" pageHeight="1100" math="0" shadow="0">
      <root>
        <mxCell id="0" />
        <mxCell id="1" parent="0" />
        <mxCell id="0y9iUDkJB6b4RQu_4Cym-1" value="" style="rounded=0;whiteSpace=wrap;html=1;fillColor=#91dd8d;strokeColor=#82b366;" vertex="1" parent="1">
          <mxGeometry x="10" y="10" width="830" height="100" as="geometry" />
        </mxCell>
        <mxCell id="0y9iUDkJB6b4RQu_4Cym-2" value="" style="verticalLabelPosition=bottom;shadow=0;dashed=0;align=center;html=1;verticalAlign=top;strokeWidth=1;shape=mxgraph.mockup.graphics.simpleIcon;strokeColor=#999999;" vertex="1" parent="1">
          <mxGeometry x="26" y="23.5" width="72.5" height="72.5" as="geometry" />
        </mxCell>
        <mxCell id="0y9iUDkJB6b4RQu_4Cym-3" value="" style="swimlane;shape=mxgraph.bootstrap.anchor;strokeColor=#999999;fillColor=#ffffff;fontColor=#666666;childLayout=stackLayout;horizontal=0;startSize=0;horizontalStack=1;resizeParent=1;resizeParentMax=0;resizeLast=0;collapsible=0;marginBottom=0;whiteSpace=wrap;html=1;" vertex="1" parent="1">
          <mxGeometry x="210" y="40" width="460" height="45" as="geometry" />
        </mxCell>
        <mxCell id="0y9iUDkJB6b4RQu_4Cym-4" value="Home" style="text;strokeColor=inherit;align=center;verticalAlign=middle;spacingLeft=10;spacingRight=10;overflow=hidden;points=[[0,0.5],[1,0.5]];portConstraint=eastwest;rotatable=0;whiteSpace=wrap;html=1;fillColor=inherit;fontColor=inherit;fontSize=17;" vertex="1" parent="0y9iUDkJB6b4RQu_4Cym-3">
          <mxGeometry width="90" height="45" as="geometry" />
        </mxCell>
        <mxCell id="0y9iUDkJB6b4RQu_4Cym-5" value="" style="text;strokeColor=inherit;align=center;verticalAlign=middle;spacingLeft=10;spacingRight=10;overflow=hidden;points=[[0,0.5],[1,0.5]];portConstraint=eastwest;rotatable=0;whiteSpace=wrap;html=1;fillColor=inherit;fontColor=inherit;fontSize=17;" vertex="1" parent="0y9iUDkJB6b4RQu_4Cym-3">
          <mxGeometry x="90" width="30" height="45" as="geometry" />
        </mxCell>
        <mxCell id="0y9iUDkJB6b4RQu_4Cym-6" value="About Us" style="text;strokeColor=inherit;align=center;verticalAlign=middle;spacingLeft=10;spacingRight=10;overflow=hidden;points=[[0,0.5],[1,0.5]];portConstraint=eastwest;rotatable=0;whiteSpace=wrap;html=1;fillColor=inherit;fontColor=inherit;fontSize=17;" vertex="1" parent="0y9iUDkJB6b4RQu_4Cym-3">
          <mxGeometry x="120" width="110" height="45" as="geometry" />
        </mxCell>
        <mxCell id="0y9iUDkJB6b4RQu_4Cym-7" value="" style="text;strokeColor=inherit;align=center;verticalAlign=middle;spacingLeft=10;spacingRight=10;overflow=hidden;points=[[0,0.5],[1,0.5]];portConstraint=eastwest;rotatable=0;whiteSpace=wrap;html=1;fillColor=inherit;fontColor=inherit;fontSize=17;" vertex="1" parent="0y9iUDkJB6b4RQu_4Cym-3">
          <mxGeometry x="230" width="30" height="45" as="geometry" />
        </mxCell>
        <mxCell id="0y9iUDkJB6b4RQu_4Cym-8" value="Trips" style="text;strokeColor=inherit;align=center;verticalAlign=middle;spacingLeft=10;spacingRight=10;overflow=hidden;points=[[0,0.5],[1,0.5]];portConstraint=eastwest;rotatable=0;whiteSpace=wrap;html=1;fillColor=inherit;fontColor=inherit;fontSize=17;" vertex="1" parent="0y9iUDkJB6b4RQu_4Cym-3">
          <mxGeometry x="260" width="90" height="45" as="geometry" />
        </mxCell>
        <mxCell id="0y9iUDkJB6b4RQu_4Cym-9" value="Contact Us" style="text;strokeColor=inherit;align=center;verticalAlign=middle;spacingLeft=10;spacingRight=10;overflow=hidden;points=[[0,0.5],[1,0.5]];portConstraint=eastwest;rotatable=0;whiteSpace=wrap;html=1;fillColor=inherit;fontColor=inherit;fontSize=17;" vertex="1" parent="0y9iUDkJB6b4RQu_4Cym-3">
          <mxGeometry x="350" width="110" height="45" as="geometry" />
        </mxCell>
        <mxCell id="IJB-9OEXQPGj0HF5DRHY-1" value="" style="rounded=0;whiteSpace=wrap;html=1;fillColor=#91dd8d;strokeColor=#82b366;" vertex="1" parent="1">
          <mxGeometry x="10" y="720" width="830" height="70" as="geometry" />
        </mxCell>
        <mxCell id="IJB-9OEXQPGj0HF5DRHY-2" value="" style="verticalLabelPosition=bottom;shadow=0;dashed=0;align=center;html=1;verticalAlign=top;strokeWidth=1;shape=mxgraph.mockup.graphics.simpleIcon;strokeColor=#999999;" vertex="1" parent="1">
          <mxGeometry x="630" y="730" width="50" height="50" as="geometry" />
        </mxCell>
        <mxCell id="IJB-9OEXQPGj0HF5DRHY-3" value="" style="verticalLabelPosition=bottom;shadow=0;dashed=0;align=center;html=1;verticalAlign=top;strokeWidth=1;shape=mxgraph.mockup.graphics.simpleIcon;strokeColor=#999999;" vertex="1" parent="1">
          <mxGeometry x="770" y="730" width="50" height="50" as="geometry" />
        </mxCell>
        <mxCell id="IJB-9OEXQPGj0HF5DRHY-4" value="Footer Content including social media Icons/Links" style="text;html=1;align=center;verticalAlign=middle;whiteSpace=wrap;rounded=0;fontColor=#000000;fontStyle=0;fontSize=16;" vertex="1" parent="1">
          <mxGeometry x="98.5" y="740" width="461.5" height="30" as="geometry" />
        </mxCell>
        <mxCell id="IJB-9OEXQPGj0HF5DRHY-5" value="" style="verticalLabelPosition=bottom;shadow=0;dashed=0;align=center;html=1;verticalAlign=top;strokeWidth=1;shape=mxgraph.mockup.graphics.simpleIcon;strokeColor=#999999;" vertex="1" parent="1">
          <mxGeometry x="700" y="730" width="50" height="50" as="geometry" />
        </mxCell>
      </root>
    </mxGraphModel>
  </diagram>
</mxfile>
